<svg width="26" height="223" viewBox="0 0 26 223" fill="none" xmlns="http://www.w3.org/2000/svg">
<path d="M0.60938 211.9C1.48539 213.121 4.88692 217.096 6.35936 218.465C7.8318 219.833 10.0498 222.215 12.5101 222.215C14.9704 222.215 17.179 219.842 18.6608 218.465C20.1425 217.088 23.5348 213.121 24.4108 211.9C25.2868 210.679 24.9606 209.198 24.9606 207.518C24.9606 207.371 23.7584 204.27 21.0279 163.349C19.164 135.323 16.1819 89.6726 14.4858 63.6821C14.961 63.4309 15.3897 63.1451 15.7439 62.9286C16.5174 62.4436 18.3067 61.0579 18.7633 60.6249C19.2199 60.1919 19.0522 59.6809 19.0522 59.092C19.0522 59.04 18.4185 57.9574 16.9833 43.6154C15.5482 29.2734 14.3367 1.76729 14.3367 1.76729L12.9481 0.823276L12.0721 0.823276L10.6835 1.76729C10.6835 1.76729 9.74227 29.2734 8.03684 43.6154C6.34074 57.8968 5.96797 59.04 5.96797 59.092C5.96797 59.6809 5.7909 60.2005 6.25686 60.6249C6.72283 61.0493 8.5028 62.4436 9.2763 62.9286C9.64907 63.1625 10.115 63.4742 10.6369 63.7341C9.06196 89.7333 6.21026 135.331 3.99228 163.34C0.75849 204.105 0.0595441 207.362 0.0595441 207.509C0.059544 209.189 -0.26663 210.662 0.60938 211.891L0.60938 211.9ZM8.2139 181.363C9.31357 176.469 9.97524 171.464 10.1337 166.423C10.4319 157.061 10.2548 147.682 10.3107 138.302L10.8606 134.933C10.9724 134.232 11.0376 133.521 11.1029 132.811C11.2613 131.079 11.9509 130.213 12.5008 130.213C12.9854 130.213 13.7216 131.079 13.8893 132.811C13.9639 133.539 14.0291 134.275 14.1503 135.002L14.6908 138.311C14.756 147.69 14.5696 157.07 14.8678 166.432C15.0263 171.472 15.6879 176.478 16.7876 181.371L17.5332 184.688C17.5611 186.161 16.5639 187.373 15.3152 187.373C13.5631 186.81 11.7086 186.776 9.94728 187.295L9.6677 187.373C8.42824 187.373 7.43108 186.161 7.44972 184.688L8.19526 181.371L8.2139 181.363ZM12.5101 192.812C16.1073 192.812 19.0149 195.566 19.0149 198.961C19.0149 199.541 17.9991 200.104 17.8407 200.641C17.0672 203.222 15.4922 205.11 12.5101 205.11C9.52791 205.11 7.95296 203.222 7.17946 200.641C7.02103 200.104 6.00523 199.541 6.00523 198.961C6.00523 195.566 8.92216 192.812 12.5101 192.812Z" fill="black"/>
</svg>
