<svg width="23" height="344" viewBox="0 0 23 344" fill="none" xmlns="http://www.w3.org/2000/svg">
<path d="M0.761134 335.158C1.55866 336.149 4.65545 339.373 5.99598 340.483C7.33651 341.593 9.35579 343.525 11.5957 343.525C13.8355 343.525 15.8463 341.6 17.1953 340.483C18.5443 339.366 21.6327 336.149 22.4302 335.158C23.2277 334.168 22.9308 332.966 22.9308 331.603C22.9308 331.484 22.8629 328.751 22.7441 323.876C21.5309 274.223 14.7688 2.18445 14.7688 2.18445L12.3593 -0.00736329L10.8406 -0.00736343L8.43102 2.18445C8.43102 2.18445 1.652 274.223 0.43873 323.876C0.319948 328.751 0.252072 331.477 0.252072 331.603C0.252072 332.966 -0.0448807 334.161 0.752649 335.158L0.761134 335.158ZM8.5413 247.83C9.09278 238.03 9.39822 228.202 9.44913 218.367L10.4757 123.268C10.4927 122.102 10.6285 121.175 11.426 121.175C12.2235 121.175 12.3593 122.102 12.3762 123.268L13.4028 218.367C13.4537 228.202 13.7592 238.03 14.3107 247.83L14.7688 255.986C14.7858 257.18 14.124 258.163 13.301 258.163C12.1387 257.7 10.9169 257.679 9.74608 258.1L9.55942 258.163C8.73644 258.163 8.07466 257.18 8.09163 255.986L8.54978 247.83L8.5413 247.83ZM11.4175 263.278C13.9204 263.278 15.9397 267.148 15.9397 271.926C15.9397 272.747 15.2355 273.541 15.1167 274.286C14.5822 277.911 13.4792 280.573 11.409 280.573C9.33882 280.573 8.24434 277.918 7.70135 274.286C7.59105 273.534 6.87836 272.74 6.87836 271.926C6.87836 267.148 8.90612 263.278 11.4005 263.278L11.4175 263.278Z" fill="black"/>
</svg>
