<svg width="10" height="345" viewBox="0 0 10 345" fill="none" xmlns="http://www.w3.org/2000/svg">
<path d="M4.86612 2.67809e-05C4.06997 2.67113e-05 3.83951 1.80477 3.86046 2.74577C4.71248 40.3645 3.81854 159.759 3.81854 159.759C3.81854 159.759 3.65093 206.534 2.78494 251.19C2.70113 255.55 2.92461 263.036 1.86308 267.102C1.68849 267.769 1.59071 268.493 1.59071 269.251L0.200937 336.546C0.200937 339.524 1.45103 342.494 4.16073 344.552C4.60071 344.882 5.11751 344.882 5.55749 344.552C8.27417 342.501 9.53125 339.531 9.53125 336.546L8.1345 269.251C8.1345 268.493 8.03673 267.769 7.86214 267.102C6.8006 263.036 7.02409 255.55 6.94028 251.19C6.0743 206.534 5.90669 159.759 5.90669 159.759C5.90669 159.759 5.01278 40.3645 5.8648 2.74577C5.88575 1.80477 5.65529 2.68499e-05 4.85914 2.67803e-05L4.86612 2.67809e-05Z" fill="black"/>
</svg>
