<?xml version="1.0" encoding="UTF-8"?><svg id="_레이어_2" xmlns="http://www.w3.org/2000/svg" viewBox="0 0 408.37 107.51"><defs><style>.cls-1{fill:#000;stroke-width:0px;}</style></defs><g id="_레이어_1-2"><g id="XRXoQZ.tif"><path class="cls-1" d="M295.63,83.17c-5.14,3.8-9.87,7.15-14.44,10.71-8.25,6.43-17.41,11.09-27.71,12.77-9.58,1.57-19.23,1.31-28.14-3.42-5.36-2.84-9.49-7.03-12.34-12.4-1.53-2.88-2.9-5.84-4.42-8.72-1.89-3.57-4.18-3.92-6.41-.68-3.09,4.49-5.59,9.4-8.75,13.84-3.59,5.04-8.44,8.64-14.95,7.88-3.54-.41-7-2.01-10.36-3.39-3.04-1.25-5.82-1.28-8.69.31-6.9,3.83-14.27,5.46-22.19,5.28-10.16-.24-20.34.13-30.5-.13-5.11-.13-10.43-1.16-13.74-5.4-2.32-2.98-3.39-6.94-5-10.47-.17-.36-.21-.78-.34-1.17-1.24-3.9-2.71-4.32-5.98-1.85-4.24,3.2-8.5,6.36-12.81,9.47-8.55,6.17-18.07,10.26-28.53,11.35-9.79,1.02-19.44-.02-27.88-5.89-6.96-4.85-10.71-11.71-11.99-20.02-1.81-11.82,1.74-22.65,6.16-33.32,3.15-7.6,7.42-14.57,12.54-20.94C28.94,14.86,41.22,6.13,56.31,1.98c9.06-2.49,18.4-2.73,27.55-.12,8.61,2.46,14.91,7.94,19.12,15.83.96,1.8,1.92,3.6,3.01,5.32,1.66,2.61,4.12,2.62,5.91.02,2.67-3.9,5.28-7.85,7.87-11.81,3.14-4.8,7.77-7.7,13.26-7.75,8.55-.08,13.44,6.39,12.23,14.76-1.42,9.78-6.09,18.51-9.3,27.71-2.36,6.75-4.94,13.42-7.08,20.24-1.88,6.01.95,10.19,7.14,11.09,5.1.74,10.25,1.16,15.31,2.08,2.77.5,5.43,1.67,8.1,2.66,5.41,2,7.2.45,9.49-3.37,2.75-4.58,5.03-9.49,7.01-14.46,6.04-15.2,11.72-30.54,17.81-45.72,1.85-4.61,4.37-8.97,8.72-11.94,8.16-5.56,19.05-3.4,21.52,8.37.33,1.59.66,3.19,1.02,4.77.8,3.51,2.96,4.41,5.98,2.35,3.64-2.49,7.22-5.07,10.74-7.72,9.28-6.97,19.31-12.13,31.02-13.53,9.2-1.1,18.21-.86,26.67,3.52,5.49,2.84,9.61,7.07,12.58,12.47,1.42,2.57,2.83,5.15,4.36,7.66,1.14,1.87,2.45,2.07,3.85.34,2.36-2.92,4.59-5.96,6.61-9.12,2.71-4.24,5.35-8.47,10.21-10.63,6.07-2.69,14.38-1.41,17.52,5.88.81,1.88,1.81,3.67,2.77,5.48,1.45,2.74,3.55,3.87,6.3,2.48,4.63-2.35,9.14-5,13.43-7.92,6.61-4.51,13.34-8.38,21.74-7.62,4.07.37,8.48,2.07,9.46,7,.73,3.69-1.14,6.73-3.39,9.32-5.49,6.34-12.67,10.65-19.25,15.69-3.32,2.55-6.71,5.16-9.42,8.31-4.14,4.81-3.68,10.57-1.86,16.26,2.61,8.13,5.47,16.19,7.84,24.39,1.41,4.86,1.57,9.82-1.59,14.38-2.33,3.36-5.69,4.97-9.43,5.57-8.16,1.32-16.06-2.6-20.08-9.89-1.93-3.49-3.35-7.26-5.08-10.86-.74-1.53-1.51-3.1-2.54-4.43-2.21-2.86-5.44-3.19-8.11-.71-1.35,1.25-2.37,2.92-3.3,4.53-2.57,4.45-4.85,9.08-7.57,13.43-2.7,4.31-10.39,8.69-17.25,6.01-4.66-1.82-6.89-5.53-8.19-10.03-.54-1.87-.92-3.79-1.54-5.63-.35-1.04-1.02-1.97-1.83-3.47ZM298.35,75.51c.93-.69,1.84-1.22,2.58-1.93,4.81-4.62,7.16-10.67,9.55-16.68,1.67-4.21,2.76-8.55,2.53-13.16-.14-2.77-.77-3.51-3.58-3.42-1.47.05-2.95.22-4.39.53-7.63,1.67-13.96-.71-19.63-5.82-3.58-3.23-7.4-6.29-12.65-6.23-6.98.08-12.28,3.79-16.86,8.46-4.19,4.28-7.22,9.47-9.63,14.98-2.28,5.21-4.31,10.49-3.75,16.31.41,4.26,2.54,7.94,6.83,9.24,5.34,1.61,9.97-.29,14.4-3.03,4.16-2.57,8.12-5.51,12.44-7.76,5.6-2.91,12.65-2.13,17.06,2.78,1.65,1.84,3.3,3.68,5.11,5.71ZM103.68,46.1c-.23-.07-.46-.14-.69-.22,0-.25,0-.5,0-.75-.01-3.71-1.2-4.65-4.87-4.39-3.69.26-7.43.58-11.09.24-5.21-.48-8.98-3.95-12.78-7.18-3.43-2.92-7.13-5.27-11.89-5.01-5.67.31-10.27,3.03-14.33,6.73-5.25,4.77-8.88,10.73-11.66,17.16-2.29,5.29-4.33,10.71-3.37,16.7.58,3.62,2.22,6.43,5.73,7.97,4.17,1.83,8.32,1.23,12.05-.79,4.5-2.44,8.61-5.58,12.99-8.26,4.57-2.79,9.61-4.21,14.64-1.87,3.03,1.41,5.56,3.99,8.15,6.22,2.27,1.95,3.01,2.29,4.8-.1,2.78-3.7,5.58-7.53,7.49-11.71,2.13-4.68,3.27-9.81,4.85-14.75Z"/></g></g></svg>