<?xml version="1.0" encoding="UTF-8"?><svg id="_레이어_2" xmlns="http://www.w3.org/2000/svg" viewBox="0 0 456.12 106.9"><defs><style>.cls-1{fill:#000;stroke-width:0px;}</style></defs><g id="_레이어_1-2"><g id="_4KGa2R.tif"><path class="cls-1" d="M84.79,81.08c-2.32,1.82-4.05,3.03-5.61,4.43-7.28,6.53-14.81,12.7-23.85,16.71-7.93,3.51-16.27,5.22-24.92,4.53-8.34-.66-16.09-3.26-22.03-9.48C3.06,91.69.47,84.86.07,77.12c-.59-11.52,2.55-22.18,7.09-32.56,3.91-8.94,9.14-17.03,15.97-23.96C32.52,11.06,43.6,4.2,56.95,1.98c9.74-1.62,19.51-1.42,28.64,3.32,5.27,2.74,9.22,6.82,11.98,12.02,1.49,2.81,2.63,5.79,4.05,8.64.52,1.03,1.56,2.75,2.06,2.65,1.22-.25,2.62-1.13,3.32-2.18,2.03-3.05,3.87-6.24,5.54-9.51,1.92-3.75,4.14-7.25,7.53-9.79,5.44-4.08,12.43-4.7,17.44.09,1.7,1.63,2.59,4.54,2.99,7,.93,5.62-1.27,10.82-3.11,15.98-4.09,11.5-8.39,22.92-12.35,34.46-.86,2.5-.94,5.36-.87,8.05.07,2.76,2.12,4.45,4.62,5.03,3.25.75,6.58,1.16,9.91,1.51,4.25.46,8.52.83,12.79,1.02,3.67.17,5.56-1.24,6.59-4.9,1.8-6.42,3.06-13.01,5.21-19.3,3.69-10.79,8.97-20.78,16.35-29.62,6.9-8.26,14.93-15.1,24.54-19.86,7.33-3.63,15.14-5.76,23.45-6.42,6.11-.49,11.93.11,17.73,1.65,9.27,2.47,15.59,8.34,19.21,17.15,1.11,2.7,1.88,5.55,3.04,8.23,1.77,4.11,3.7,4.74,7.18,2.07,3.2-2.45,6.16-5.23,9.08-8.02,8.42-8.02,17.92-14.21,29.11-17.62,9.81-3,19.8-3.55,29.63-.69,8.72,2.53,14.76,8.45,18,17.07,1.13,3,2.4,5.95,3.67,9.08,4.27-1.72,5.88-5.06,7.92-8.03,2.91-4.24,5.67-8.63,9.04-12.49,3.42-3.92,8.3-5.07,13.32-4.15,4.94.9,7.46,4.68,9.02,9.16.24.69.32,1.43.54,2.13,1.56,4.84,3.96,5.99,8.51,3.53,4.3-2.32,8.38-5.05,12.48-7.72,6.64-4.33,13.34-8.52,21.75-7.68,5.52.55,10.18,3.02,9.09,9.03-.45,2.48-1.89,5.29-3.78,6.9-5.77,4.95-11.97,9.39-18,14.03-4.08,3.14-8.26,6.17-12.23,9.46-5.2,4.31-6.07,10.1-4.7,16.31,1.77,8.02,3.92,15.96,5.66,23.99.98,4.51,1.13,9.02-1.12,13.42-2.08,4.07-5.55,6.24-9.64,6.72-10.63,1.24-17.36-2.64-21.27-13.28-1.37-3.73-2.54-7.63-4.59-10.97-2.36-3.84-6.69-3.55-9.14.27-2.81,4.4-5.28,9-8.05,13.43-3.25,5.2-7.45,9.24-13.99,9.65-6.91.43-11.48-3.95-12.51-10.53-.35-2.26-.62-4.53-1.03-6.77-.17-.92-.62-1.79-1.13-3.18-3.53,2.61-6.76,4.92-9.91,7.33-8.06,6.17-16.33,11.96-26.26,14.82-9.49,2.73-18.98,3.49-28.54.34-8.69-2.86-14.36-8.8-17.63-17.2-.68-1.74-1.31-3.5-2-5.24-2.24-5.58-4.87-5.01-8.8-1.9-3.87,3.07-7.33,6.67-11.06,9.93-9.03,7.89-19.34,13.25-31.21,15.42-8.02,1.47-16.02,1.58-23.97-.51-4.67-1.23-8.72-3.59-12.38-6.67-1.26-1.06-2.45-2.2-3.77-3.18-3.03-2.24-5.05-2.29-7.73.59-6.33,6.8-14.25,8.89-23.16,8.78-10.41-.12-20.84.18-31.25-.11-5.7-.16-11.19-1.82-14.16-7.3-1.35-2.5-1.82-5.51-2.49-8.33-.55-2.34-.81-4.75-1.35-8.02ZM31.1,66.57c-.71,8.42,5.79,14.62,14.81,11.6,4.14-1.39,7.89-4.13,11.59-6.6,3.9-2.6,7.72-5.31,12.51-5.72,7.12-.62,11.56,3.35,14.47,9.29,1.04,2.12,1.72,1.92,3.09.48,3.79-3.99,6.45-8.69,8.21-13.81,1.86-5.44,3.59-10.98,4.71-16.61.99-4.95-.61-5.95-5.48-4.62-3.92,1.07-7.81,2.3-12.04,1.44-5.26-1.07-8.96-4.43-12.81-7.79-2.04-1.79-4.45-3.51-6.99-4.31-6.55-2.06-11.99.88-16.84,4.96-5.58,4.7-9.3,10.78-11.98,17.48-1.82,4.54-3.53,9.17-3.26,14.21ZM343.14,77.58c2.22-2.53,4.37-4.46,5.9-6.79,5.13-7.8,9.21-16.08,10.82-25.43.64-3.73-.61-5.09-4.29-4.33-3.99.83-7.95,1.8-12.14.97-4.88-.97-8.35-3.87-11.7-7.24-3.5-3.52-7.62-6.08-12.89-5.41-4.83.62-8.95,2.96-12.59,6.09-6.76,5.8-11.48,13.11-14.7,21.29-1.53,3.88-2.51,8.14-2.82,12.29-.4,5.29,4.32,10.19,9.89,9.88,4.83-.27,8.74-2.31,12.56-4.89,4.03-2.72,7.8-5.72,12.59-7.36,6.48-2.23,13.78.79,16.76,6.9.59,1.21,1.46,2.28,2.61,4.05ZM223.1,28.31c-3.63-.5-8.35,1.65-10.89,3.14-6.4,3.76-11.27,9.1-14.85,15.48-3.77,6.71-7.14,13.69-6.74,21.72.4,8.13,6.5,11.92,13.44,11.06,8.4-1.04,14.71-6.11,19.71-12.48,5.63-7.16,9.48-15.24,10.98-24.47,1.29-7.94-3.74-15.53-11.65-14.45Z"/></g></g></svg>